<svg width="16" height="16" viewBox="0 0 16 16" xmlns="http://www.w3.org/2000/svg" fill="currentcolor"><path fill-rule="evenodd" clip-rule="evenodd" d="M8 12.5C10.4853 12.5 12.5 10.4853 12.5 8C12.5 5.51472 10.4853 3.5 8 3.5C5.51472 3.5 3.5 5.51472 3.5 8C3.5 10.4853 5.51472 12.5 8 12.5ZM10.2803 6.21967C10.5732 6.51256 10.5732 6.98744 10.2803 7.28033L7.78032 9.78033C7.63967 9.92098 7.4489 10 7.24999 10C7.05108 10 6.86031 9.92098 6.71966 9.78033L5.71967 8.78033C5.42678 8.48743 5.42678 8.01256 5.71967 7.71967C6.01257 7.42678 6.48744 7.42678 6.78033 7.71967L7.25 8.18934L9.21967 6.21967C9.51256 5.92678 9.98744 5.92678 10.2803 6.21967Z" fill="black"/><path fill-rule="evenodd" clip-rule="evenodd" d="M4 0C1.79086 0 0 1.79086 0 4V12C0 14.2091 1.79086 16 4 16H12C14.2091 16 16 14.2091 16 12V4C16 1.79086 14.2091 0 12 0H4ZM8 14C11.3137 14 14 11.3137 14 8C14 4.68629 11.3137 2 8 2C4.68629 2 2 4.68629 2 8C2 11.3137 4.68629 14 8 14Z" fill="black"/></svg>