<svg width="16" height="16" viewBox="0 0 16 16" xmlns="http://www.w3.org/2000/svg" fill="currentcolor"><path fill-rule="evenodd" clip-rule="evenodd" d="M3.5 2.5v11h9v-11h-9ZM3 1a1 1 0 0 0-1 1v12a1 1 0 0 0 1 1h10a1 1 0 0 0 1-1V2a1 1 0 0 0-1-1H3Zm5 10a.75.75 0 0 1 .75-.75h1.75a.75.75 0 0 1 0 1.5H8.75A.75.75 0 0 1 8 11Zm-2 1a1 1 0 1 0 0-2 1 1 0 0 0 0 2Zm2-4a.75.75 0 0 1 .75-.75h1.75a.75.75 0 0 1 0 1.5H8.75A.75.75 0 0 1 8 8ZM6 9a1 1 0 1 0 0-2 1 1 0 0 0 0 2Zm2-4a.75.75 0 0 1 .75-.75h1.75a.75.75 0 0 1 0 1.5H8.75A.75.75 0 0 1 8 5ZM6 6a1 1 0 1 0 0-2 1 1 0 0 0 0 2Z"/></svg>