<svg width="16" height="16" viewBox="0 0 16 16" xmlns="http://www.w3.org/2000/svg" fill="currentColor"><path d="m6.43 1.168-.74-.123.74.123Zm-.156.939.74.123-.74-.123Zm-.173.2.237.711-.237-.711ZM4.02 3.509l-.498-.56.498.56Zm-.26.05.263-.702-.263.702Zm-.893-.334.263-.703-.263.703Zm-.608.218-.65-.375.65.375ZM1.183 5.307l-.65-.375.65.375Zm.115.636.477-.579-.477.58Zm.736.606-.477.579.477-.58Zm.086.25.735.149-.735-.15Zm0 2.403.735-.15-.735.15Zm-.086.25.476.578-.476-.579Zm-.736.605-.476-.58.476.58Zm-.115.636-.65.375.65-.375Zm1.077 1.864.65-.375-.65.375Zm.608.218.263.703-.263-.703Zm.893-.334-.263-.703.263.703Zm.26.05-.498.56.498-.56Zm2.08 1.202.237-.711-.237.711Zm.173.2.74-.123-.74.123Zm.156.94.74-.124-.74.123Zm3.14 0-.74-.124.74.123Zm.156-.94.74.123-.74-.123Zm.173-.2.238.712-.238-.712Zm2.08-1.202-.497-.561.497.56Zm.26-.05.263-.703-.263.703Zm.893.334-.263.703.263-.703Zm.609-.218-.65-.375.65.375Zm1.076-1.864.65.375-.65-.375Zm-.115-.636-.477.579.477-.58Zm-.736-.606-.476.58.476-.58Zm-.086-.25.735.15-.735-.15Zm0-2.403.735-.15-.735.15Zm.086-.25-.476-.578.476.579Zm.736-.605-.477-.579.477.58Zm.115-.636.65-.375-.65.375ZM13.74 3.443l-.65.375.65-.375Zm-.609-.218-.263-.703.263.703Zm-.893.334-.263-.702.263.702Zm-.26-.05-.497.561.497-.56ZM9.9 2.307l-.237.711.237-.711Zm-.173-.2.74-.123-.74.123Zm-.156-.94-.74.124.74-.123ZM6.924 1.5h2.152V0H6.924v1.5Zm.246-.209a.25.25 0 0 1-.246.209V0A1.25 1.25 0 0 0 5.69 1.044l1.48.247Zm-.156.94.156-.94-1.48-.246-.156.939 1.48.246Zm-.676.787c.343-.114.613-.41.676-.788l-1.48-.246a.494.494 0 0 1 .33-.389l.474 1.423ZM4.518 4.07a5.244 5.244 0 0 1 1.82-1.052l-.474-1.423a6.744 6.744 0 0 0-2.34 1.353l.994 1.122Zm-1.02.192c.36.134.75.048 1.02-.192l-.995-1.122a.494.494 0 0 1 .501-.091l-.526 1.405Zm-.893-.335.893.335.526-1.405-.893-.335-.526 1.405Zm.304-.11a.25.25 0 0 1-.304.11l.526-1.405a1.25 1.25 0 0 0-1.521.546l1.3.75ZM1.833 5.683l1.076-1.864-1.299-.75L.534 4.932l1.299.75Zm-.058-.318a.25.25 0 0 1 .058.318l-1.3-.75a1.25 1.25 0 0 0 .289 1.59l.953-1.158Zm.735.606-.735-.606-.953 1.158.735.606.953-1.158Zm.345.978a1.006 1.006 0 0 0-.345-.978l-.953 1.158a.494.494 0 0 1-.172-.48l1.47.3ZM2.75 8c0-.361.036-.713.105-1.052l-1.47-.3c-.088.438-.135.89-.135 1.352h1.5Zm.105 1.052A5.277 5.277 0 0 1 2.75 8h-1.5c0 .462.047.914.135 1.351l1.47-.299Zm-.345.978c.296-.243.417-.624.345-.978l-1.47.3a.494.494 0 0 1 .172-.48l.953 1.158Zm-.735.606.735-.606-.953-1.158-.735.606.953 1.158Zm.058-.318a.25.25 0 0 1-.058.318L.822 9.478a1.25 1.25 0 0 0-.288 1.59l1.299-.75Zm1.076 1.864-1.076-1.864-1.3.75 1.077 1.864 1.3-.75Zm-.304-.109a.25.25 0 0 1 .304.11l-1.299.75c.306.528.949.76 1.521.545l-.526-1.405Zm.893-.335-.893.335.526 1.405.893-.335-.526-1.405Zm1.02.192a1.006 1.006 0 0 0-1.02-.191l.526 1.404a.494.494 0 0 1-.5-.091l.994-1.122Zm1.82 1.052a5.243 5.243 0 0 1-1.82-1.052l-.995 1.122a6.745 6.745 0 0 0 2.34 1.353l.475-1.423Zm.676.788a1.006 1.006 0 0 0-.676-.788l-.474 1.423a.494.494 0 0 1-.33-.388l1.48-.247Zm.156.939-.156-.94-1.48.248.157.939 1.48-.247Zm-.246-.209a.25.25 0 0 1 .246.209l-1.48.247A1.25 1.25 0 0 0 6.925 16v-1.5Zm2.152 0H6.924V16h2.152v-1.5Zm-.246.209a.25.25 0 0 1 .246-.209V16a1.25 1.25 0 0 0 1.233-1.044l-1.48-.247Zm.156-.94-.156.94 1.48.247.156-.94-1.48-.246Zm.676-.787c-.343.114-.613.41-.676.788l1.48.246a.494.494 0 0 1-.33.389l-.474-1.423Zm1.82-1.052a5.244 5.244 0 0 1-1.82 1.052l.474 1.423a6.745 6.745 0 0 0 2.34-1.353l-.994-1.122Zm1.02-.191a1.006 1.006 0 0 0-1.02.19l.995 1.123a.494.494 0 0 1-.501.091l.526-1.405Zm.893.334-.893-.335-.526 1.405.893.335.526-1.405Zm-.304.11a.25.25 0 0 1 .304-.11l-.526 1.405a1.25 1.25 0 0 0 1.521-.546l-1.299-.75Zm1.076-1.865-1.076 1.864 1.299.75 1.076-1.864-1.299-.75Zm.058.318a.25.25 0 0 1-.058-.318l1.3.75a1.25 1.25 0 0 0-.289-1.59l-.953 1.158Zm-.735-.606.735.606.953-1.158-.735-.606-.953 1.158Zm-.345-.978c-.072.354.049.735.345.978l.953-1.158c.15.123.206.311.172.48l-1.47-.3ZM13.25 8c0 .361-.036.713-.105 1.052l1.47.3c.088-.438.135-.89.135-1.352h-1.5Zm-.105-1.052c.069.339.105.69.105 1.052h1.5c0-.462-.046-.914-.135-1.351l-1.47.299Zm.345-.978a1.007 1.007 0 0 0-.345.978l1.47-.3a.494.494 0 0 1-.172.48L13.49 5.97Zm.735-.606-.735.606.953 1.158.735-.606-.953-1.158Zm-.058.318a.25.25 0 0 1 .058-.318l.953 1.158a1.25 1.25 0 0 0 .288-1.59l-1.299.75Zm-1.076-1.864 1.076 1.864 1.3-.75-1.077-1.864-1.299.75Zm.304.109a.25.25 0 0 1-.304-.11l1.299-.75a1.25 1.25 0 0 0-1.521-.545l.526 1.405Zm-.893.334.893-.334-.526-1.405-.893.335.526 1.404Zm-1.02-.19c.27.24.66.325 1.02.19l-.526-1.404a.494.494 0 0 1 .5.091l-.994 1.122Zm-1.82-1.053a5.244 5.244 0 0 1 1.82 1.052l.995-1.122a6.744 6.744 0 0 0-2.34-1.353l-.475 1.423Zm-.676-.788c.063.379.333.674.676.788l.474-1.423a.494.494 0 0 1 .33.389l-1.48.246Zm-.156-.939.156.94 1.48-.247-.157-.94-1.48.247Zm.246.209a.25.25 0 0 1-.246-.209l1.48-.246A1.25 1.25 0 0 0 9.075 0v1.5ZM10.25 8A2.25 2.25 0 0 1 8 10.25v1.5A3.75 3.75 0 0 0 11.75 8h-1.5ZM8 5.75A2.25 2.25 0 0 1 10.25 8h1.5A3.75 3.75 0 0 0 8 4.25v1.5ZM5.75 8A2.25 2.25 0 0 1 8 5.75v-1.5A3.75 3.75 0 0 0 4.25 8h1.5ZM8 10.25A2.25 2.25 0 0 1 5.75 8h-1.5A3.75 3.75 0 0 0 8 11.75v-1.5Z"/></svg>