<svg width="16" height="16" viewBox="0 0 16 16" xmlns="http://www.w3.org/2000/svg" fill="currentcolor"><path fill-rule="evenodd" clip-rule="evenodd" d="M2.21967 4.21967C2.51256 3.92678 2.98744 3.92678 3.28033 4.21967L6 6.93934L8.71967 4.21967C9.01256 3.92678 9.48744 3.92678 9.78033 4.21967C10.0732 4.51256 10.0732 4.98744 9.78033 5.28033L7.06066 8L9.78033 10.7197C10.0732 11.0126 10.0732 11.4874 9.78033 11.7803C9.48744 12.0732 9.01256 12.0732 8.71967 11.7803L6 9.06066L3.28033 11.7803C2.98744 12.0732 2.51256 12.0732 2.21967 11.7803C1.92678 11.4874 1.92678 11.0126 2.21967 10.7197L4.93934 8L2.21967 5.28033C1.92678 4.98744 1.92678 4.51256 2.21967 4.21967ZM12.6266 11.002H11V10H12.6266C12.989 10 13.3366 10.1444 13.5939 10.4017C14.1979 11.006 14.1172 12.013 13.4247 12.5115L12.7489 12.998H13.9813L13.9814 14H11V13.026L12.8472 11.6961C13.0386 11.5583 13.0609 11.28 12.8939 11.113C12.8228 11.0419 12.7267 11.002 12.6266 11.002Z" fill="black"/></svg>