<svg width="16" height="16" viewBox="0 0 16 16" xmlns="http://www.w3.org/2000/svg" fill="currentcolor"><path fill-rule="evenodd" clip-rule="evenodd" d="M12.6266 3.00196H11V2H12.6266C12.989 2 13.3366 2.1444 13.5939 2.40173C14.1979 3.00598 14.1172 4.01296 13.4247 4.51152L12.7489 4.99804H13.9813L13.9814 6H11V5.02599L12.8472 3.69611C13.0386 3.55832 13.0609 3.28 12.8939 3.11299C12.8228 3.04187 12.7267 3.00196 12.6266 3.00196ZM2.21967 4.21967C2.51256 3.92678 2.98744 3.92678 3.28033 4.21967L6 6.93934L8.71967 4.21967C9.01256 3.92678 9.48744 3.92678 9.78033 4.21967C10.0732 4.51256 10.0732 4.98744 9.78033 5.28033L7.06066 8L9.78033 10.7197C10.0732 11.0126 10.0732 11.4874 9.78033 11.7803C9.48744 12.0732 9.01256 12.0732 8.71967 11.7803L6 9.06066L3.28033 11.7803C2.98744 12.0732 2.51256 12.0732 2.21967 11.7803C1.92678 11.4874 1.92678 11.0126 2.21967 10.7197L4.93934 8L2.21967 5.28033C1.92678 4.98744 1.92678 4.51256 2.21967 4.21967Z" fill="black"/></svg>